<mxfile host="app.diagrams.net" agent="Mozilla/5.0 (Windows NT 10.0; Win64; x64) AppleWebKit/537.36 (KHTML, like Gecko) Chrome/140.0.0.0 Safari/537.36" version="28.2.3">
  <diagram name="Página-1" id="YWYwoeP4mRuZ2OBto-2d">
    <mxGraphModel dx="1426" dy="777" grid="1" gridSize="10" guides="1" tooltips="1" connect="1" arrows="1" fold="1" page="1" pageScale="1" pageWidth="827" pageHeight="1169" background="#FAFFF8" math="0" shadow="1">
      <root>
        <mxCell id="0" />
        <mxCell id="1" parent="0" />
        <mxCell id="ZH_kPXTmaQF38pL4gd3C-5" style="edgeStyle=orthogonalEdgeStyle;rounded=0;orthogonalLoop=1;jettySize=auto;html=1;" parent="1" source="ZH_kPXTmaQF38pL4gd3C-1" target="ZH_kPXTmaQF38pL4gd3C-4" edge="1">
          <mxGeometry relative="1" as="geometry" />
        </mxCell>
        <mxCell id="ZH_kPXTmaQF38pL4gd3C-1" value="Inicio" style="ellipse;whiteSpace=wrap;html=1;fillColor=#dae8fc;strokeColor=#6c8ebf;strokeWidth=4;shadow=1;" parent="1" vertex="1">
          <mxGeometry x="354" y="140" width="120" height="80" as="geometry" />
        </mxCell>
        <mxCell id="ZH_kPXTmaQF38pL4gd3C-8" style="edgeStyle=orthogonalEdgeStyle;rounded=0;orthogonalLoop=1;jettySize=auto;html=1;entryX=0.5;entryY=0;entryDx=0;entryDy=0;" parent="1" source="ZH_kPXTmaQF38pL4gd3C-4" edge="1">
          <mxGeometry relative="1" as="geometry">
            <mxPoint x="414" y="350" as="targetPoint" />
          </mxGeometry>
        </mxCell>
        <mxCell id="ZH_kPXTmaQF38pL4gd3C-4" value="LER NotaAluno" style="shape=parallelogram;perimeter=parallelogramPerimeter;whiteSpace=wrap;html=1;fixedSize=1;fillColor=#e1d5e7;strokeColor=#9673a6;strokeWidth=4;shadow=1;" parent="1" vertex="1">
          <mxGeometry x="354" y="250" width="120" height="60" as="geometry" />
        </mxCell>
        <mxCell id="MGrMMfSNfZaCyBNasD92-10" style="edgeStyle=orthogonalEdgeStyle;rounded=0;orthogonalLoop=1;jettySize=auto;html=1;exitX=0.5;exitY=1;exitDx=0;exitDy=0;entryX=0;entryY=0.5;entryDx=0;entryDy=0;" edge="1" parent="1" source="ZH_kPXTmaQF38pL4gd3C-9" target="ZH_kPXTmaQF38pL4gd3C-11">
          <mxGeometry relative="1" as="geometry" />
        </mxCell>
        <mxCell id="ZH_kPXTmaQF38pL4gd3C-9" value="Escrever &quot;&lt;font face=&quot;Times New Roman&quot;&gt;Reprovado&quot;&lt;/font&gt;" style="shape=parallelogram;perimeter=parallelogramPerimeter;whiteSpace=wrap;html=1;fixedSize=1;fillColor=#e1d5e7;strokeColor=#9673a6;strokeWidth=4;shadow=1;" parent="1" vertex="1">
          <mxGeometry x="140" y="490" width="140" height="60" as="geometry" />
        </mxCell>
        <mxCell id="ZH_kPXTmaQF38pL4gd3C-11" value="Fim" style="ellipse;whiteSpace=wrap;html=1;fillColor=#f8cecc;strokeColor=#b85450;strokeWidth=4;shadow=1;" parent="1" vertex="1">
          <mxGeometry x="354" y="670" width="120" height="80" as="geometry" />
        </mxCell>
        <mxCell id="MGrMMfSNfZaCyBNasD92-3" style="edgeStyle=orthogonalEdgeStyle;rounded=0;orthogonalLoop=1;jettySize=auto;html=1;entryX=0.5;entryY=0;entryDx=0;entryDy=0;" edge="1" parent="1" source="MGrMMfSNfZaCyBNasD92-1" target="ZH_kPXTmaQF38pL4gd3C-9">
          <mxGeometry relative="1" as="geometry">
            <Array as="points">
              <mxPoint x="210" y="445" />
            </Array>
          </mxGeometry>
        </mxCell>
        <mxCell id="MGrMMfSNfZaCyBNasD92-12" value="NÃO" style="edgeLabel;html=1;align=center;verticalAlign=middle;resizable=0;points=[];" vertex="1" connectable="0" parent="MGrMMfSNfZaCyBNasD92-3">
          <mxGeometry x="-0.2517" y="4" relative="1" as="geometry">
            <mxPoint as="offset" />
          </mxGeometry>
        </mxCell>
        <mxCell id="MGrMMfSNfZaCyBNasD92-6" style="edgeStyle=orthogonalEdgeStyle;rounded=0;orthogonalLoop=1;jettySize=auto;html=1;entryX=0.5;entryY=0;entryDx=0;entryDy=0;" edge="1" parent="1" source="MGrMMfSNfZaCyBNasD92-1" target="MGrMMfSNfZaCyBNasD92-5">
          <mxGeometry relative="1" as="geometry" />
        </mxCell>
        <mxCell id="MGrMMfSNfZaCyBNasD92-11" value="SIM" style="edgeLabel;html=1;align=center;verticalAlign=middle;resizable=0;points=[];" vertex="1" connectable="0" parent="MGrMMfSNfZaCyBNasD92-6">
          <mxGeometry x="-0.3691" y="-4" relative="1" as="geometry">
            <mxPoint as="offset" />
          </mxGeometry>
        </mxCell>
        <mxCell id="MGrMMfSNfZaCyBNasD92-1" value="NotaAluno9.5" style="rhombus;whiteSpace=wrap;html=1;fillColor=#d80073;fontColor=#ffffff;strokeColor=#A50040;strokeWidth=6;" vertex="1" parent="1">
          <mxGeometry x="312" y="350" width="204" height="190" as="geometry" />
        </mxCell>
        <mxCell id="MGrMMfSNfZaCyBNasD92-9" style="edgeStyle=orthogonalEdgeStyle;rounded=0;orthogonalLoop=1;jettySize=auto;html=1;entryX=1;entryY=0.5;entryDx=0;entryDy=0;" edge="1" parent="1" source="MGrMMfSNfZaCyBNasD92-5" target="ZH_kPXTmaQF38pL4gd3C-11">
          <mxGeometry relative="1" as="geometry">
            <Array as="points">
              <mxPoint x="620" y="710" />
            </Array>
          </mxGeometry>
        </mxCell>
        <mxCell id="MGrMMfSNfZaCyBNasD92-5" value="Escrever &quot;&lt;font face=&quot;Times New Roman&quot;&gt;Aprovado&quot;&lt;/font&gt;" style="shape=parallelogram;perimeter=parallelogramPerimeter;whiteSpace=wrap;html=1;fixedSize=1;fillColor=#e1d5e7;strokeColor=#9673a6;strokeWidth=4;shadow=1;" vertex="1" parent="1">
          <mxGeometry x="550" y="490" width="140" height="60" as="geometry" />
        </mxCell>
      </root>
    </mxGraphModel>
  </diagram>
</mxfile>
